<svg width="48" height="48" viewBox="0 0 48 48" fill="none" xmlns="http://www.w3.org/2000/svg">
<path d="M45 24C45 35.598 35.598 45 24 45C12.402 45 3 35.598 3 24C3 12.402 12.402 3 24 3C35.598 3 45 12.402 45 24Z" fill="white"/>
<path fill-rule="evenodd" clip-rule="evenodd" d="M24 44C35.0457 44 44 35.0457 44 24C44 12.9543 35.0457 4 24 4C12.9543 4 4 12.9543 4 24C4 35.0457 12.9543 44 24 44ZM24 45C35.598 45 45 35.598 45 24C45 12.402 35.598 3 24 3C12.402 3 3 12.402 3 24C3 35.598 12.402 45 24 45Z" fill="black"/>
<path fill-rule="evenodd" clip-rule="evenodd" d="M21.7251 19.1077V28.0173C21.7251 29.6646 20.354 31 18.6626 31C16.9712 31 15.6001 29.6646 15.6001 28.0173V19.1077C15.6001 17.4604 16.9712 16.125 18.6626 16.125C20.354 16.125 21.7251 17.4604 21.7251 19.1077ZM32.2249 19.1077V28.0173C32.2249 29.6646 30.8538 31 29.1624 31C27.471 31 26.0999 29.6646 26.0999 28.0173V19.1077C26.0999 17.4604 27.471 16.125 29.1624 16.125C30.8538 16.125 32.2249 17.4604 32.2249 19.1077Z" fill="white"/>
<path fill-rule="evenodd" clip-rule="evenodd" d="M32.2271 27.7533V19.4835C32.2271 17.9545 30.9876 16.715 29.4586 16.715C27.9296 16.715 26.6901 17.9545 26.6901 19.4835V27.7533C26.6901 29.2823 27.9296 30.5218 29.4586 30.5218C30.9876 30.5218 32.2271 29.2823 32.2271 27.7533ZM29.4586 15.6875C27.3621 15.6875 25.6626 17.387 25.6626 19.4835V27.7533C25.6626 29.8498 27.3621 31.5493 29.4586 31.5493C31.5551 31.5493 33.2546 29.8498 33.2546 27.7533V19.4835C33.2546 17.387 31.5551 15.6875 29.4586 15.6875Z" fill="black"/>
<path d="M25.6626 28.2335C25.6626 26.137 27.3621 24.4375 29.4586 24.4375V24.4375C31.5551 24.4375 33.2546 26.137 33.2546 28.2335V28.2335C33.2546 30.33 31.5551 32.0295 29.4586 32.0295V32.0295C27.3621 32.0295 25.6626 30.33 25.6626 28.2335V28.2335Z" fill="black"/>
<path fill-rule="evenodd" clip-rule="evenodd" d="M21.2896 27.7533V19.4835C21.2896 17.9545 20.0501 16.715 18.5211 16.715C16.9921 16.715 15.7526 17.9545 15.7526 19.4835V27.7533C15.7526 29.2823 16.9921 30.5218 18.5211 30.5218C20.0501 30.5218 21.2896 29.2823 21.2896 27.7533ZM18.5211 15.6875C16.4246 15.6875 14.7251 17.387 14.7251 19.4835V27.7533C14.7251 29.8498 16.4246 31.5493 18.5211 31.5493C20.6176 31.5493 22.3171 29.8498 22.3171 27.7533V19.4835C22.3171 17.387 20.6176 15.6875 18.5211 15.6875Z" fill="black"/>
<path d="M14.7251 28.2335C14.7251 26.137 16.4246 24.4375 18.5211 24.4375V24.4375C20.6176 24.4375 22.3171 26.137 22.3171 28.2335V28.2335C22.3171 30.33 20.6176 32.0295 18.5211 32.0295V32.0295C16.4246 32.0295 14.7251 30.33 14.7251 28.2335V28.2335Z" fill="black"/>
</svg>
