<svg width="120" height="48" viewBox="0 0 120 48" fill="none" xmlns="http://www.w3.org/2000/svg">
<path d="M11.324 31.0001H13.15L16.714 20.0221L20.256 31.0001H22.082L27.406 15.6001H24.744L21.092 26.7981L17.638 15.6001H15.768L12.314 26.7981L8.662 15.6001H6L11.324 31.0001Z" fill="black"/>
<path d="M31.327 31.2641C32.581 31.2641 33.989 30.6481 34.605 29.6141V31.0001H37.003V20.7481H34.605V22.1341C33.989 21.1001 32.757 20.4841 31.393 20.4841C28.203 20.4841 26.289 22.8601 26.289 25.8741C26.289 28.8881 28.027 31.2641 31.327 31.2641ZM31.679 29.1301C29.809 29.1301 28.687 27.7441 28.687 25.8741C28.687 24.0041 29.809 22.6181 31.679 22.6181C33.725 22.6181 34.715 24.1141 34.715 25.8741C34.715 27.6341 33.725 29.1301 31.679 29.1301Z" fill="black"/>
<path d="M39.6385 31.0001H42.0365V25.3681C42.0365 23.5641 42.9165 22.5301 44.4785 22.5301C46.1505 22.5301 46.7225 23.4761 46.7225 25.6541V31.0001H49.1205V24.5541C49.1205 21.8701 47.8445 20.4841 45.3805 20.4841C43.8625 20.4841 42.6745 21.0781 42.0365 22.1781V20.7481H39.6385V31.0001Z" fill="black"/>
<path d="M51.6595 31.0001H54.0575V25.3681C54.0575 23.5641 54.9375 22.5301 56.4995 22.5301C58.1715 22.5301 58.7435 23.4761 58.7435 25.6541V31.0001H61.1415V24.5541C61.1415 21.8701 59.8655 20.4841 57.4015 20.4841C55.8835 20.4841 54.6955 21.0781 54.0575 22.1781V20.7481H51.6595V31.0001Z" fill="black"/>
<path d="M67.9484 31.2641C69.2024 31.2641 70.6104 30.6481 71.2264 29.6141V31.0001H73.6244V20.7481H71.2264V22.1341C70.6104 21.1001 69.3784 20.4841 68.0144 20.4841C64.8244 20.4841 62.9104 22.8601 62.9104 25.8741C62.9104 28.8881 64.6484 31.2641 67.9484 31.2641ZM68.3004 29.1301C66.4304 29.1301 65.3084 27.7441 65.3084 25.8741C65.3084 24.0041 66.4304 22.6181 68.3004 22.6181C70.3464 22.6181 71.3364 24.1141 71.3364 25.8741C71.3364 27.6341 70.3464 29.1301 68.3004 29.1301Z" fill="black"/>
<path d="M80.9019 28.9761C79.9559 28.9761 79.4059 28.7561 79.4059 26.9741V22.7501H81.7599V20.7481H79.4059V17.6461H77.0079V20.7481H75.2699V22.7501H77.0079V27.5241C77.0079 30.9781 79.1639 31.1321 80.3299 31.1321C81.0339 31.1321 81.7379 31.0661 82.1119 31.0001V28.8881C81.8699 28.9321 81.2759 28.9761 80.9019 28.9761Z" fill="black"/>
<path d="M89.6186 20.4841C88.1006 20.4841 86.9126 21.0781 86.2746 22.1781V15.6001H83.8766V31.0001H86.2746V25.3681C86.2746 23.5641 87.1546 22.5301 88.7166 22.5301C90.3886 22.5301 90.9606 23.4761 90.9606 25.6541V31.0001H93.3586V24.5541C93.3586 21.8701 92.0826 20.4841 89.6186 20.4841Z" fill="black"/>
<path d="M97.1075 19.2741C98.1635 19.2741 98.8895 18.4821 98.8895 17.4921C98.8895 16.5021 98.1635 15.7101 97.1075 15.7101C96.0515 15.7101 95.3255 16.5021 95.3255 17.4921C95.3255 18.4821 96.0515 19.2741 97.1075 19.2741ZM95.8975 31.0001H98.2955V20.7481H95.8975V31.0001Z" fill="black"/>
<path d="M104.522 31.2641C107.14 31.2641 108.57 29.8781 108.57 27.9201C108.57 26.6001 107.58 25.5661 106.194 25.1701L103.752 24.4661C103.224 24.3121 102.872 23.9381 102.872 23.3661C102.872 22.7281 103.51 22.3101 104.346 22.3101C105.468 22.3101 106.128 22.8161 106.128 23.6741H108.482C108.482 21.8481 107.118 20.4841 104.434 20.4841C102.058 20.4841 100.496 21.8261 100.496 23.4981C100.496 24.8621 101.2 25.9181 102.718 26.3361L105.358 27.0621C105.952 27.2161 106.128 27.6781 106.128 28.1401C106.128 28.8661 105.556 29.3501 104.654 29.3501C103.422 29.3501 102.564 28.7341 102.564 27.8541H100.166C100.166 29.7241 101.882 31.2641 104.522 31.2641Z" fill="black"/>
</svg>
